<svg width="77" height="33" viewBox="0 0 77 33" fill="none" xmlns="http://www.w3.org/2000/svg">
<path d="M14.328 14.576C14.328 15.552 14.104 16.448 13.656 17.264C13.208 18.064 12.52 18.712 11.592 19.208C10.664 19.704 9.512 19.952 8.136 19.952H5.592V26H1.488V9.152H8.136C9.48 9.152 10.616 9.384 11.544 9.848C12.472 10.312 13.168 10.952 13.632 11.768C14.096 12.584 14.328 13.52 14.328 14.576ZM7.824 16.688C8.608 16.688 9.192 16.504 9.576 16.136C9.96 15.768 10.152 15.248 10.152 14.576C10.152 13.904 9.96 13.384 9.576 13.016C9.192 12.648 8.608 12.464 7.824 12.464H5.592V16.688H7.824ZM18.8734 8.24V26H14.7694V8.24H18.8734ZM19.3363 19.28C19.3363 17.904 19.5923 16.696 20.1043 15.656C20.6323 14.616 21.3443 13.816 22.2403 13.256C23.1363 12.696 24.1363 12.416 25.2403 12.416C26.1843 12.416 27.0083 12.608 27.7123 12.992C28.4323 13.376 28.9843 13.88 29.3683 14.504V12.608H33.4723V26H29.3683V24.104C28.9683 24.728 28.4083 25.232 27.6883 25.616C26.9843 26 26.1603 26.192 25.2163 26.192C24.1283 26.192 23.1363 25.912 22.2403 25.352C21.3443 24.776 20.6323 23.968 20.1043 22.928C19.5923 21.872 19.3363 20.656 19.3363 19.28ZM29.3683 19.304C29.3683 18.28 29.0803 17.472 28.5043 16.88C27.9443 16.288 27.2563 15.992 26.4403 15.992C25.6243 15.992 24.9283 16.288 24.3523 16.88C23.7923 17.456 23.5123 18.256 23.5123 19.28C23.5123 20.304 23.7923 21.12 24.3523 21.728C24.9283 22.32 25.6243 22.616 26.4403 22.616C27.2563 22.616 27.9443 22.32 28.5043 21.728C29.0803 21.136 29.3683 20.328 29.3683 19.304ZM42.2101 22.52V26H40.1221C38.6341 26 37.4741 25.64 36.6421 24.92C35.8101 24.184 35.3941 22.992 35.3941 21.344V16.016H33.7621V12.608H35.3941V9.344H39.4981V12.608H42.1861V16.016H39.4981V21.392C39.4981 21.792 39.5941 22.08 39.7861 22.256C39.9781 22.432 40.2981 22.52 40.7461 22.52H42.2101ZM46.905 14.84C47.385 14.104 47.985 13.528 48.705 13.112C49.425 12.68 50.225 12.464 51.105 12.464V16.808H49.977C48.953 16.808 48.185 17.032 47.673 17.48C47.161 17.912 46.905 18.68 46.905 19.784V26H42.801V12.608H46.905V14.84ZM53.4354 11.216C52.7154 11.216 52.1234 11.008 51.6594 10.592C51.2114 10.16 50.9874 9.632 50.9874 9.008C50.9874 8.368 51.2114 7.84 51.6594 7.424C52.1234 6.992 52.7154 6.776 53.4354 6.776C54.1394 6.776 54.7154 6.992 55.1634 7.424C55.6274 7.84 55.8594 8.368 55.8594 9.008C55.8594 9.632 55.6274 10.16 55.1634 10.592C54.7154 11.008 54.1394 11.216 53.4354 11.216ZM55.4754 12.608V26H51.3714V12.608H55.4754ZM62.8503 26.192C61.5383 26.192 60.3543 25.912 59.2983 25.352C58.2583 24.792 57.4343 23.992 56.8263 22.952C56.2343 21.912 55.9383 20.696 55.9383 19.304C55.9383 17.928 56.2423 16.72 56.8503 15.68C57.4583 14.624 58.2903 13.816 59.3463 13.256C60.4023 12.696 61.5863 12.416 62.8983 12.416C64.2103 12.416 65.3943 12.696 66.4503 13.256C67.5063 13.816 68.3383 14.624 68.9463 15.68C69.5543 16.72 69.8583 17.928 69.8583 19.304C69.8583 20.68 69.5463 21.896 68.9223 22.952C68.3143 23.992 67.4743 24.792 66.4023 25.352C65.3463 25.912 64.1623 26.192 62.8503 26.192ZM62.8503 22.64C63.6343 22.64 64.2983 22.352 64.8423 21.776C65.4023 21.2 65.6823 20.376 65.6823 19.304C65.6823 18.232 65.4103 17.408 64.8663 16.832C64.3383 16.256 63.6823 15.968 62.8983 15.968C62.0983 15.968 61.4343 16.256 60.9063 16.832C60.3783 17.392 60.1143 18.216 60.1143 19.304C60.1143 20.376 60.3703 21.2 60.8823 21.776C61.4103 22.352 62.0663 22.64 62.8503 22.64Z" fill="white"/>
</svg>
